<mxfile host="app.diagrams.net" modified="2020-11-12T13:46:56.552Z" agent="5.0 (Windows NT 10.0; Win64; x64) AppleWebKit/537.36 (KHTML, like Gecko) Chrome/86.0.4240.183 Safari/537.36" etag="BhQBWo9ood7tbniX90yx" version="13.9.7" type="github">
  <diagram id="76KLX1Tyw8OJ2HWkUYvw" name="Page-1">
    <mxGraphModel dx="1422" dy="762" grid="1" gridSize="10" guides="1" tooltips="1" connect="1" arrows="1" fold="1" page="1" pageScale="1" pageWidth="827" pageHeight="1169" math="0" shadow="0">
      <root>
        <mxCell id="0" />
        <mxCell id="1" parent="0" />
        <mxCell id="SeXQM4YsFDkqSfDYHbvO-1" value="" style="rounded=0;whiteSpace=wrap;html=1;" vertex="1" parent="1">
          <mxGeometry x="170" y="40" width="540" height="630" as="geometry" />
        </mxCell>
        <mxCell id="SeXQM4YsFDkqSfDYHbvO-2" value="" style="rounded=0;whiteSpace=wrap;html=1;" vertex="1" parent="1">
          <mxGeometry x="30" y="40" width="120" height="630" as="geometry" />
        </mxCell>
        <mxCell id="SeXQM4YsFDkqSfDYHbvO-3" value="Event Name Input Form" style="rounded=0;whiteSpace=wrap;html=1;" vertex="1" parent="1">
          <mxGeometry x="220" y="90" width="430" height="30" as="geometry" />
        </mxCell>
        <mxCell id="SeXQM4YsFDkqSfDYHbvO-5" value="Selected&lt;br&gt;Event Date" style="rounded=0;whiteSpace=wrap;html=1;" vertex="1" parent="1">
          <mxGeometry x="220" y="250" width="180" height="100" as="geometry" />
        </mxCell>
        <mxCell id="SeXQM4YsFDkqSfDYHbvO-7" value="Map" style="rounded=0;whiteSpace=wrap;html=1;" vertex="1" parent="1">
          <mxGeometry x="410" y="400" width="240" height="100" as="geometry" />
        </mxCell>
        <mxCell id="SeXQM4YsFDkqSfDYHbvO-9" value="Map Search Form" style="rounded=0;whiteSpace=wrap;html=1;" vertex="1" parent="1">
          <mxGeometry x="220" y="360" width="430" height="30" as="geometry" />
        </mxCell>
        <mxCell id="SeXQM4YsFDkqSfDYHbvO-16" value="Event Description text box" style="rounded=0;whiteSpace=wrap;html=1;" vertex="1" parent="1">
          <mxGeometry x="220" y="130" width="430" height="110" as="geometry" />
        </mxCell>
        <mxCell id="SeXQM4YsFDkqSfDYHbvO-18" value="Event Calendar" style="rounded=0;whiteSpace=wrap;html=1;" vertex="1" parent="1">
          <mxGeometry x="412.5" y="250" width="237.5" height="100" as="geometry" />
        </mxCell>
        <mxCell id="SeXQM4YsFDkqSfDYHbvO-21" value="Searched&lt;br&gt;Location" style="rounded=0;whiteSpace=wrap;html=1;" vertex="1" parent="1">
          <mxGeometry x="220" y="400" width="180" height="100" as="geometry" />
        </mxCell>
        <mxCell id="SeXQM4YsFDkqSfDYHbvO-22" value="Store Name" style="rounded=0;whiteSpace=wrap;html=1;" vertex="1" parent="1">
          <mxGeometry x="220" y="510" width="430" height="30" as="geometry" />
        </mxCell>
        <mxCell id="SeXQM4YsFDkqSfDYHbvO-23" value="Store Location" style="rounded=0;whiteSpace=wrap;html=1;" vertex="1" parent="1">
          <mxGeometry x="220" y="550" width="430" height="30" as="geometry" />
        </mxCell>
        <mxCell id="SeXQM4YsFDkqSfDYHbvO-24" value="Store URL" style="rounded=0;whiteSpace=wrap;html=1;" vertex="1" parent="1">
          <mxGeometry x="220" y="590" width="430" height="30" as="geometry" />
        </mxCell>
        <mxCell id="SeXQM4YsFDkqSfDYHbvO-25" value="link register page" style="rounded=0;whiteSpace=wrap;html=1;" vertex="1" parent="1">
          <mxGeometry x="40" y="50" width="100" height="30" as="geometry" />
        </mxCell>
        <mxCell id="SeXQM4YsFDkqSfDYHbvO-26" value="clear&lt;span style=&quot;color: rgba(0 , 0 , 0 , 0) ; font-family: monospace ; font-size: 0px&quot;&gt;%3CmxGraphModel%3E%3Croot%3E%3CmxCell%20id%3D%220%22%2F%3E%3CmxCell%20id%3D%221%22%20parent%3D%220%22%2F%3E%3CmxCell%20id%3D%222%22%20value%3D%22link%20register%20page%22%20style%3D%22rounded%3D0%3BwhiteSpace%3Dwrap%3Bhtml%3D1%3B%22%20vertex%3D%221%22%20parent%3D%221%22%3E%3CmxGeometry%20x%3D%2240%22%20y%3D%2250%22%20width%3D%22100%22%20height%3D%2230%22%20as%3D%22geometry%22%2F%3E%3C%2FmxCell%3E%3C%2Froot%3E%3C%2FmxGraphModel%3E&lt;/span&gt;" style="rounded=0;whiteSpace=wrap;html=1;" vertex="1" parent="1">
          <mxGeometry x="320" y="630" width="100" height="30" as="geometry" />
        </mxCell>
        <mxCell id="SeXQM4YsFDkqSfDYHbvO-27" value="register" style="rounded=0;whiteSpace=wrap;html=1;" vertex="1" parent="1">
          <mxGeometry x="430" y="630" width="100" height="30" as="geometry" />
        </mxCell>
        <mxCell id="SeXQM4YsFDkqSfDYHbvO-28" value="registered event&lt;br&gt;by cookie" style="rounded=0;whiteSpace=wrap;html=1;" vertex="1" parent="1">
          <mxGeometry x="40" y="110" width="100" height="30" as="geometry" />
        </mxCell>
        <mxCell id="SeXQM4YsFDkqSfDYHbvO-29" value="registered event&lt;br&gt;by cookie" style="rounded=0;whiteSpace=wrap;html=1;" vertex="1" parent="1">
          <mxGeometry x="40" y="150" width="100" height="30" as="geometry" />
        </mxCell>
        <mxCell id="SeXQM4YsFDkqSfDYHbvO-30" value="registered event&lt;br&gt;by cookie" style="rounded=0;whiteSpace=wrap;html=1;" vertex="1" parent="1">
          <mxGeometry x="40" y="190" width="100" height="30" as="geometry" />
        </mxCell>
        <mxCell id="SeXQM4YsFDkqSfDYHbvO-31" value="&lt;font style=&quot;font-size: 24px&quot;&gt;Register Page&lt;/font&gt;" style="text;html=1;strokeColor=none;fillColor=none;align=center;verticalAlign=middle;whiteSpace=wrap;rounded=0;" vertex="1" parent="1">
          <mxGeometry x="170" y="40" width="180" height="30" as="geometry" />
        </mxCell>
      </root>
    </mxGraphModel>
  </diagram>
</mxfile>
